<?xml version="1.0" standalone="no"?>
<!DOCTYPE svg PUBLIC "-//W3C//DTD SVG 20010904//EN"
 "http://www.w3.org/TR/2001/REC-SVG-20010904/DTD/svg10.dtd">
<svg version="1.0" xmlns="http://www.w3.org/2000/svg"
 width="380.000000pt" height="224.000000pt" viewBox="0 0 380.000000 224.000000"
 preserveAspectRatio="xMidYMid meet">

<g transform="translate(0.000000,224.000000) scale(0.100000,-0.100000)"
fill="#000000" stroke="none">
<path d="M1675 1823 c-73 -7 -209 -33 -274 -54 -243 -77 -346 -209 -371 -473
-22 -225 37 -455 152 -601 171 -217 552 -329 913 -270 303 49 497 175 599 389
59 123 77 197 83 351 17 421 -159 603 -629 654 -90 10 -381 12 -473 4z m520
-54 c250 -34 411 -122 483 -266 44 -86 57 -160 56 -313 -2 -204 -47 -346 -151
-474 -148 -183 -466 -286 -787 -257 -146 14 -249 42 -366 98 -235 113 -360
337 -360 641 0 238 58 369 204 464 99 64 249 104 446 118 119 9 370 3 475 -11z"/>
<path d="M1605 1734 c-255 -39 -406 -134 -464 -289 -28 -75 -45 -214 -37 -311
25 -300 174 -497 449 -589 304 -101 701 -53 916 112 109 84 192 227 220 377
15 83 13 258 -4 339 -45 212 -211 327 -528 367 -115 14 -444 11 -552 -6z m-18
-125 l38 -71 5 69 5 68 168 3 c144 2 167 0 167 -13 0 -13 -22 -15 -150 -15
l-150 0 0 -84 c0 -47 -5 -88 -10 -91 -22 -14 -47 8 -80 71 l-35 66 -5 -68 c-4
-55 -8 -69 -22 -72 -16 -3 -18 7 -18 102 0 106 0 106 24 106 20 0 32 -13 63
-71z m443 41 c0 -23 4 -30 20 -30 11 0 20 -5 20 -11 0 -6 -9 -13 -20 -16 -31
-8 -26 -93 6 -93 8 0 14 -7 14 -15 0 -8 -9 -15 -19 -15 -32 0 -51 28 -51 74 0
23 -6 48 -12 55 -10 11 -10 14 0 18 6 3 12 18 12 34 0 19 5 29 15 29 10 0 15
-10 15 -30z m90 -76 c0 -95 -2 -105 -17 -102 -15 3 -18 17 -21 92 -3 99 0 116
23 116 12 0 15 -17 15 -106z m160 91 c0 -12 -14 -15 -65 -15 -70 0 -89 16 -27
23 81 8 92 7 92 -8z m-468 -62 c10 -9 18 -27 18 -40 0 -21 -4 -23 -50 -23 -38
0 -50 -4 -50 -15 0 -22 27 -30 55 -15 36 19 53 8 27 -18 -46 -46 -122 -11
-122 56 0 20 7 44 17 54 20 23 80 24 105 1z m148 2 c17 -21 4 -32 -20 -17 -27
17 -50 15 -50 -3 0 -9 12 -18 30 -21 37 -8 53 -26 48 -56 -6 -41 -100 -51
-115 -12 -9 23 4 29 31 14 25 -13 62 -7 52 9 -3 5 -18 12 -33 16 -50 12 -69
45 -41 73 17 17 83 15 98 -3z m302 -2 c9 -10 19 -28 22 -40 7 -22 5 -23 -48
-23 -44 0 -56 -3 -56 -15 0 -21 29 -31 51 -17 43 27 67 6 27 -22 -32 -23 -65
-20 -93 9 -31 30 -33 77 -5 105 25 25 81 27 102 3z m42 -212 c65 -12 139 -30
165 -42 127 -56 163 -164 126 -372 -29 -163 -145 -286 -320 -340 -112 -34
-185 -28 -91 8 45 18 94 59 79 68 -4 2 -60 -7 -123 -21 -103 -22 -139 -25
-340 -26 -244 -1 -298 7 -407 60 -128 62 -182 158 -190 340 -8 168 16 223 120
273 117 57 315 81 632 76 178 -2 257 -8 349 -24z"/>
<path d="M1743 1593 c-26 -10 -13 -33 17 -33 32 0 42 23 14 34 -9 3 -16 6 -17
5 -1 0 -8 -3 -14 -6z"/>
<path d="M2193 1593 c-25 -10 -14 -33 16 -33 37 0 48 15 22 29 -11 6 -21 11
-23 10 -2 0 -9 -3 -15 -6z"/>
<path d="M1303 1230 c-21 -13 -36 -32 -44 -58 -15 -51 5 -95 62 -137 53 -39
66 -62 46 -82 -13 -13 -20 -13 -50 -2 -29 10 -39 10 -51 0 -34 -29 -10 -67 52
-86 59 -18 134 26 147 85 9 41 -18 93 -66 126 -22 15 -45 36 -50 46 -15 27 7
51 39 43 51 -13 74 52 27 73 -38 17 -76 15 -112 -8z"/>
<path d="M1524 1170 c-27 -11 -38 -38 -22 -57 8 -10 22 -12 49 -8 31 5 39 3
48 -14 16 -29 14 -31 -15 -17 -32 17 -59 10 -84 -22 -55 -70 15 -194 85 -148
20 13 25 13 35 1 16 -19 35 -19 54 1 19 19 22 163 5 213 -18 51 -93 76 -155
51z m76 -175 c0 -25 -23 -35 -35 -15 -10 16 2 40 20 40 9 0 15 -9 15 -25z"/>
<path d="M1708 1169 c-10 -5 -18 -18 -18 -27 0 -29 71 -230 85 -242 32 -27 50
-2 90 120 41 125 41 150 1 158 -26 5 -43 -14 -56 -66 l-12 -47 -17 45 c-26 73
-36 81 -73 59z"/>
<path d="M1975 1171 c-11 -5 -31 -21 -45 -36 -22 -23 -25 -36 -25 -101 0 -70
2 -75 33 -106 28 -28 39 -33 82 -33 43 0 54 5 82 33 31 31 33 36 33 107 0 70
-2 76 -31 106 -33 33 -92 46 -129 30z m77 -106 c17 -37 0 -80 -31 -80 -30 0
-46 40 -32 78 14 35 47 36 63 2z"/>
<path d="M2172 1168 c-8 -8 -12 -53 -12 -135 0 -122 0 -124 25 -135 21 -9 28
-8 45 7 17 16 20 31 20 107 l0 88 28 0 c43 0 66 22 58 53 -5 21 -12 27 -35 27
-16 0 -34 -7 -42 -16 -11 -14 -13 -14 -21 0 -11 19 -49 21 -66 4z"/>
<path d="M2353 1163 c-4 -9 1 -55 11 -102 14 -72 22 -91 49 -115 l31 -29 -37
-32 c-41 -36 -48 -69 -17 -85 41 -22 105 34 134 117 20 59 48 221 41 243 -7
23 -47 27 -63 7 -6 -7 -16 -43 -23 -80 -7 -37 -15 -67 -19 -67 -4 0 -12 30
-19 67 -7 37 -17 73 -23 80 -15 19 -57 16 -65 -4z"/>
<path d="M2523 513 c-9 -23 6 -45 29 -41 33 4 32 51 0 53 -13 1 -26 -4 -29
-12z m35 -18 c13 5 14 3 5 -6 -14 -14 -33 -3 -32 19 1 15 2 14 6 -1 3 -12 10
-16 21 -12z"/>
</g>
</svg>
